<?xml version="1.0" encoding="UTF-8"?>
<!--
  MCH SOLUCIONES · Logo completo
  Variante: para fondo VERDE INGLÉS #14342B
  Versión: v1.0 · 2026-05-12
-->
<svg xmlns="http://www.w3.org/2000/svg" viewBox="0 0 320 120" width="320" height="120" role="img" aria-label="MCH Soluciones">
  <g transform="translate(0,16)">
    <rect width="88" height="88" fill="#C9A961"/>
    <path d="M12 24 L26 24 L26 68 L12 68 Z M15 18 L23 18 L23 24 L15 24 Z M62 24 L76 24 L76 68 L62 68 Z M65 18 L73 18 L73 24 L65 24 Z M26 24 L30 24 L44 46 L58 24 L62 24 L62 32 L48 50 L40 50 L26 32 Z" fill="#14342B"/>
  </g>
  <g transform="translate(108,0)">
    <text x="0" y="64" font-family="'Archivo Black','Arial Black',sans-serif" font-size="64" letter-spacing="-3" fill="#F5F5F5">MCH</text>
    <line x1="0" y1="78" x2="180" y2="78" stroke="#C9A961" stroke-width="1.5"/>
    <text x="0" y="100" font-family="'JetBrains Mono','Consolas',monospace" font-size="11" letter-spacing="4" fill="#F5F5F5">SOLUCIONES</text>
    <text x="180" y="100" font-family="'JetBrains Mono','Consolas',monospace" font-size="11" letter-spacing="2" fill="#8AA39B" text-anchor="end">NOA · AR</text>
  </g>
</svg>
